<svg width="80" height="80" viewBox="0 0 80 80" fill="none" xmlns="http://www.w3.org/2000/svg">
  <defs>
    <linearGradient id="helmet" x1="20" y1="6" x2="60" y2="46" gradientUnits="userSpaceOnUse">
      <stop stop-color="#FEE2E2" />
      <stop offset="1" stop-color="#F87171" />
    </linearGradient>
    <linearGradient id="visor" x1="22" y1="30" x2="58" y2="54" gradientUnits="userSpaceOnUse">
      <stop stop-color="#FFFFFF" />
      <stop offset="1" stop-color="#FFE4E6" />
    </linearGradient>
  </defs>
  <circle cx="40" cy="40" r="30" fill="url(#helmet)" stroke="#F43F5E" stroke-width="3" />
  <path d="M22 28 C28 16 52 16 58 28" stroke="#F43F5E" stroke-width="6" stroke-linecap="round" />
  <rect x="22" y="34" width="36" height="24" rx="12" fill="url(#visor)" stroke="#FDA4AF" stroke-width="2" />
  <path d="M30 46 C30 44 28.5 42.5 27 42.5 C25.5 42.5 24 44 24 46" stroke="#EF4444" stroke-width="3" stroke-linecap="round" />
  <path d="M56 46 C56 44 54.5 42.5 53 42.5 C51.5 42.5 50 44 50 46" stroke="#EF4444" stroke-width="3" stroke-linecap="round" />
  <path d="M30 54 C34 58 46 58 50 54" stroke="#EF4444" stroke-width="3" stroke-linecap="round" />
  <path d="M14 40 C10 36 9 30 12 26" stroke="#EF4444" stroke-width="5" stroke-linecap="round" />
  <path d="M66 40 C70 36 71 30 68 26" stroke="#EF4444" stroke-width="5" stroke-linecap="round" />
  <path d="M14 34 C10 30 9 24 12 20" stroke="#FB7185" stroke-width="4" stroke-linecap="round" />
  <path d="M66 34 C70 30 71 24 68 20" stroke="#FB7185" stroke-width="4" stroke-linecap="round" />
  <circle cx="20" cy="44" r="5" stroke="#FB7185" stroke-width="3" fill="none" />
  <circle cx="60" cy="44" r="5" stroke="#FB7185" stroke-width="3" fill="none" />
  <path d="M38 20 C38 18 40 16 42 16" stroke="#F43F5E" stroke-width="3" stroke-linecap="round" />
  <circle cx="46" cy="18" r="4" fill="#F43F5E" />
</svg>
